<svg width="40" height="40" viewBox="0 0 40 40" fill="none" xmlns="http://www.w3.org/2000/svg">
<path fill-rule="evenodd" clip-rule="evenodd" d="M20.0001 40C31.0458 40 40 31.0456 40 19.9999C40 8.95421 31.0458 0 20.0001 0C8.95439 0 0 8.95421 0 19.9999C0 31.0456 8.95439 40 20.0001 40ZM18.5323 23.5514C18.538 23.5328 18.5438 23.5136 18.5498 23.4933C18.5927 23.5464 18.6331 23.5991 18.6727 23.6508C18.7552 23.7584 18.8342 23.8616 18.9256 23.954C20.6804 25.7401 24.4837 25.5471 26.8298 22.6373C28.8693 20.1055 29.029 16.5229 28.8071 15.0699C28.3201 11.8807 25.7192 9.06951 21.6048 8.60151C18.16 8.21131 14.3867 9.49793 12.3584 12.6792C10.5274 15.5505 10.9233 18.9422 12.3083 20.6571C12.7147 21.1609 13.2155 21.5442 13.8165 21.7871C14.1231 21.9116 14.3769 21.8012 14.461 21.4981C14.5315 21.2445 14.594 20.9889 14.6564 20.7333C14.6944 20.5781 14.7323 20.423 14.772 20.2683C14.8335 20.0306 14.7103 19.8781 14.5339 19.6598C14.5144 19.6358 14.4944 19.611 14.4739 19.5852C12.8434 17.5392 13.6644 13.0625 17.2761 11.3929C20.4264 9.93466 25.3918 10.9133 25.6597 15.4415C25.7958 17.7127 25.0804 20.9173 23.2377 22.2539C21.2391 23.7041 18.9011 22.292 19.4021 20.3056C19.5849 19.5782 19.7843 18.9219 19.9655 18.3258C20.3839 16.9492 20.7047 15.8937 20.4971 15.0253C20.0135 13.0129 17.2488 13.2002 16.4792 15.6387C16.124 16.768 16.2044 17.882 16.6111 18.9799C16.6476 19.0783 16.6754 19.1692 16.6506 19.2781C16.3645 20.4814 16.1219 21.4951 15.916 22.3551C14.8989 26.6047 14.7798 27.1024 14.7435 28.1995C14.7103 29.2118 14.7866 30.2176 14.9252 31.2203C14.9258 31.2246 14.9264 31.2288 14.9269 31.2331C14.94 31.3313 14.9541 31.4372 15.0759 31.4631C15.1782 31.4839 15.2323 31.4116 15.2836 31.343C15.2906 31.3337 15.2976 31.3244 15.3046 31.3155C15.8184 30.655 16.2835 29.9645 16.6965 29.2362C17.4261 27.9445 17.6072 27.2208 18.1504 25.0492C18.2517 24.6442 18.3656 24.1889 18.498 23.6702C18.5079 23.6316 18.5196 23.5932 18.5323 23.5514Z" fill="#DA4047"/>
</svg>
