<svg width="40" height="40" viewBox="0 0 40 40" fill="none" xmlns="http://www.w3.org/2000/svg">
<path d="M40 20C40 31.0457 31.0457 40 20 40C8.95433 40 0 31.0457 0 20C0 8.95433 8.95433 0 20 0C31.0457 0 40 8.95433 40 20Z" fill="#CB3F69"/>
<path d="M20 0V40C31.0456 40 40 31.0457 40 20C40 8.95433 31.0456 0 20 0Z" fill="#CB3F69"/>
<path d="M28.7514 28.2486C29.2305 28.2486 29.6456 28.0906 29.9983 27.7783L23.9613 21.7409C23.8164 21.8446 23.6761 21.9455 23.5433 22.0414C23.0916 22.3743 22.7248 22.634 22.4434 22.82C22.1619 23.0067 21.7873 23.1968 21.3197 23.3909C20.8517 23.5853 20.4159 23.6822 20.0116 23.6822H19.9997H19.9879C19.5834 23.6822 19.1475 23.5853 18.6797 23.3909C18.2119 23.1968 17.8372 23.0067 17.5561 22.82C17.2745 22.634 16.908 22.3743 16.456 22.0414C16.3301 21.949 16.1903 21.8477 16.0393 21.7393L10.001 27.7783C10.3539 28.0906 10.7691 28.2486 11.2481 28.2486H28.7514Z" fill="white"/>
<path d="M10.7921 17.9392C10.3403 17.6381 9.93968 17.2932 9.59082 16.9047V26.09L14.912 20.7689C13.8474 20.0256 12.4759 19.0836 10.7921 17.9392Z" fill="white"/>
<path d="M29.2199 17.9392C27.6001 19.0356 26.2236 19.9793 25.0898 20.7711L30.4088 26.0902V16.9047C30.0679 17.2854 29.6716 17.6301 29.2199 17.9392Z" fill="white"/>
<path d="M28.7513 11.7513H11.248C10.6374 11.7513 10.1679 11.9575 9.83903 12.3695C9.50981 12.7817 9.3457 13.2972 9.3457 13.9155C9.3457 14.4147 9.56365 14.9558 9.99947 15.5388C10.4354 16.1213 10.8992 16.579 11.3907 16.9119C11.6602 17.1023 12.4729 17.6673 13.8285 18.6064C14.5604 19.1135 15.1967 19.5555 15.7438 19.9371C16.2099 20.2619 16.6119 20.5433 16.9439 20.7767C16.982 20.8035 17.0418 20.8462 17.1215 20.9031C17.2071 20.9646 17.3156 21.0428 17.4494 21.1394C17.707 21.3257 17.9211 21.4763 18.0915 21.5913C18.2618 21.7065 18.468 21.8351 18.7099 21.9778C18.9518 22.1203 19.1798 22.2277 19.3938 22.299C19.6078 22.3701 19.806 22.406 19.9882 22.406H20.0002H20.0119C20.1942 22.406 20.3925 22.3701 20.6064 22.299C20.8205 22.2277 21.0482 22.1204 21.2902 21.9778C21.5319 21.8351 21.738 21.7063 21.9087 21.5913C22.0791 21.4763 22.2933 21.3257 22.5507 21.1394C22.6844 21.0428 22.7928 20.9646 22.8785 20.9034C22.958 20.8463 23.0179 20.8037 23.0562 20.7767C23.3148 20.5967 23.7179 20.3167 24.2595 19.9404C25.2454 19.2555 26.6973 18.2473 28.6213 16.9119C29.2 16.5078 29.6833 16.02 30.0719 15.4495C30.4598 14.8788 30.6541 14.2804 30.6541 13.6541C30.6541 13.1308 30.4655 12.6831 30.0894 12.3102C29.7126 11.9377 29.2666 11.7513 28.7513 11.7513Z" fill="white"/>
</svg>
