<svg width="25" height="25" viewBox="0 0 25 25" fill="none" xmlns="http://www.w3.org/2000/svg">
<path d="M23.9975 22.6093L17.2944 15.9061C18.5928 14.3023 19.3746 12.2644 19.3746 10.0447C19.3746 4.90026 15.1887 0.714355 10.0442 0.714355C4.89973 0.714355 0.713867 4.90022 0.713867 10.0447C0.713867 15.1891 4.89978 19.3751 10.0442 19.3751C12.2639 19.3751 14.3018 18.5933 15.9057 17.2949L22.6088 23.998C22.8003 24.1895 23.0517 24.2858 23.3032 24.2858C23.5546 24.2858 23.806 24.1895 23.9976 23.998C24.3816 23.614 24.3816 22.9933 23.9975 22.6093ZM10.0442 17.4108C5.98208 17.4108 2.67817 14.1068 2.67817 10.0447C2.67817 5.98252 5.98208 2.67861 10.0442 2.67861C14.1064 2.67861 17.4103 5.98252 17.4103 10.0447C17.4103 14.1068 14.1064 17.4108 10.0442 17.4108Z" fill="white"/>
</svg>
