<svg width="40" height="40" viewBox="0 0 40 40" fill="none" xmlns="http://www.w3.org/2000/svg">
<path fill-rule="evenodd" clip-rule="evenodd" d="M30.8616 29.1396H26.7128V22.6434C26.7128 21.0939 26.6835 19.1013 24.5543 19.1013C22.3941 19.1013 22.0624 20.7891 22.0624 22.5308V29.1396H17.9145V15.78H21.8957V17.6058H21.9512C22.5066 16.5553 23.8605 15.4478 25.8806 15.4478C30.0849 15.4478 30.8616 18.215 30.8616 21.812V29.1396ZM13.234 13.9531C11.9032 13.9531 10.8261 12.8746 10.8261 11.5458C10.8261 10.2185 11.9032 9.13979 13.234 9.13979C14.5618 9.13979 15.6405 10.2185 15.6405 11.5458C15.6405 12.8746 14.5618 13.9531 13.234 13.9531ZM15.3096 29.1396H11.1575V15.78H15.3096V29.1396ZM20.0002 0C8.95442 0 0 8.95494 0 19.9998V20.0012C0 31.0456 8.95442 40 20.0002 40C31.0451 40 40 31.0456 40 19.9998C40 8.95494 31.0451 0 20.0002 0Z" fill="#4272A8"/>
</svg>
