<svg width="40" height="40" viewBox="0 0 40 40" fill="none" xmlns="http://www.w3.org/2000/svg">
<path fill-rule="evenodd" clip-rule="evenodd" d="M26.391 11.0061C26.391 11.0061 24.2309 11.0061 23.3734 11.0061C22.3069 11.0061 22.0862 11.4428 22.0862 12.5445C22.0862 13.4619 22.0862 15.2075 22.0862 15.2075H26.391L25.976 19.8827H22.0862V33.8463H16.5097V19.9412H13.6087V15.2075H16.5097C16.5097 15.2075 16.5097 14.5279 16.5097 11.4795C16.5097 7.98141 18.3804 6.15374 22.5296 6.15374C23.2092 6.15374 26.391 6.15374 26.391 6.15374V11.0061ZM20 0C8.95434 0 0 8.95468 0 20V20.001C0 31.0453 8.95434 40 20 40C31.0458 40 40.0001 31.0453 40.0001 20C40.0001 8.95468 31.0458 0 20 0Z" fill="#4272A8"/>
</svg>
