<svg width="40" height="40" viewBox="0 0 40 40" fill="none" xmlns="http://www.w3.org/2000/svg">
<path fill-rule="evenodd" clip-rule="evenodd" d="M30.5438 14.7256C30.5525 14.9352 30.5573 15.1444 30.5573 15.3569C30.5573 22.9341 24.7915 30.7694 15.1434 30.7694C12.1946 30.7694 9.32198 29.9275 6.83923 28.3353C6.78705 28.3031 6.76521 28.2378 6.78602 28.1818C6.80734 28.1223 6.86584 28.088 6.92519 28.0943C7.34199 28.1441 7.768 28.1692 8.19077 28.1692C10.4856 28.1692 12.6583 27.4601 14.4957 26.114C12.2926 25.9274 10.4001 24.4369 9.7195 22.3111C9.70501 22.2656 9.71507 22.2178 9.7456 22.1846C9.77647 22.1493 9.82388 22.1332 9.86823 22.1416C10.4788 22.2584 11.0995 22.2656 11.698 22.1685C9.42634 21.4628 7.82991 19.3352 7.82991 16.9123L7.83042 16.8412C7.83127 16.7953 7.85651 16.7538 7.89659 16.7306C7.93615 16.7074 7.98545 16.7074 8.02501 16.7306C8.6173 17.0581 9.27319 17.2692 9.94547 17.3504C8.64049 16.3104 7.87391 14.7319 7.87391 13.0456C7.87391 12.0723 8.13176 11.1154 8.61866 10.2803C8.64049 10.2415 8.68005 10.2183 8.722 10.2151C8.76549 10.2102 8.80711 10.2291 8.83405 10.2629C11.5063 13.5398 15.4362 15.5583 19.6385 15.8167C19.5679 15.4645 19.5326 15.0999 19.5326 14.7338C19.5326 11.699 22.0014 9.23023 25.0353 9.23023C26.5274 9.23023 27.9683 9.84452 29.0016 10.915C30.1661 10.6783 31.2756 10.2502 32.2997 9.64311C32.3464 9.61326 32.406 9.61804 32.4484 9.65232C32.4914 9.68557 32.5088 9.74271 32.4919 9.7949C32.1445 10.8811 31.4675 11.8288 30.5578 12.5114C31.4143 12.3636 32.2455 12.1124 33.0363 11.7612C33.0898 11.7365 33.1522 11.7515 33.1903 11.7969C33.228 11.8414 33.2314 11.9057 33.1986 11.9534C32.4779 13.0321 31.5848 13.9643 30.5438 14.7256ZM20.0003 0C8.95394 0 0 8.95481 0 19.9998V20.0013C0 31.0457 8.95394 40 20.0003 40C31.0457 40 40.0005 31.0457 40.0005 19.9998C40.0005 8.95481 31.0457 0 20.0003 0Z" fill="#29A5D9"/>
</svg>
