<svg width="40" height="40" viewBox="0 0 40 40" fill="none" xmlns="http://www.w3.org/2000/svg">
<path fill-rule="evenodd" clip-rule="evenodd" d="M39.9976 19.9892C39.9976 31.0539 31.0349 40 19.9924 40C8.94717 40 0 31.0539 0 19.9892C0 8.94632 8.94717 0 19.9924 0C31.0349 0 39.9976 8.94632 39.9976 19.9892ZM23.1769 25.7056C22.7515 25.7404 22.3221 25.6568 21.9135 25.5293C19.1299 24.7153 17.0224 23.0132 15.3343 20.7006C14.7032 19.8405 14.1037 18.9203 13.9182 17.8384C13.6612 16.5695 14.0579 15.4523 15.0175 14.584C15.3343 14.2864 16.2555 14.1483 16.638 14.3352C16.7569 14.4458 16.8268 14.5516 16.9061 14.6708C17.2525 15.5253 17.6166 16.329 17.9692 17.1568C18.0204 17.3244 18.0156 17.4921 17.917 17.6708C17.733 18.0441 17.4465 18.3606 17.1732 18.6691C16.9409 18.8715 16.9409 19.1043 17.0978 19.3372C18.0957 21.0064 19.4404 22.1994 21.2498 22.8998C21.5105 23.0132 21.7124 22.9702 21.8748 22.7593C22.1892 22.4048 22.4945 22.0125 22.7871 21.6285C22.9595 21.3875 23.1978 21.3551 23.4609 21.4551C24.0566 21.7339 24.6429 22.0125 25.2143 22.2753C25.3698 22.3481 25.4814 22.4159 25.6219 22.4617C26.2223 22.7593 26.2223 22.8026 26.1522 23.4489C26.074 24.7153 25.1002 25.3564 23.9859 25.6756C23.6846 25.7404 23.4416 25.7404 23.1769 25.7056ZM21.7047 29.8603C21.1208 29.9715 20.5739 30.0284 20.2977 29.9797C18.1522 29.9797 16.4216 29.517 14.8142 28.5809C14.5867 28.4432 14.4114 28.3997 14.1955 28.4809C13.0966 28.7542 12.0229 29.0407 10.9356 29.3194C10.7107 29.3953 10.6888 29.3576 10.7376 29.1219C11.0275 28.1157 11.2946 27.0903 11.6114 26.0519C11.6844 25.7702 11.6655 25.5622 11.4863 25.3318C9.28194 21.7532 9.38288 17.3244 11.8466 14.0106C14.4114 10.5773 17.9411 9.15147 22.1294 10.0471C26.2633 10.9155 28.9111 13.6073 29.853 17.719C31.187 23.3437 27.3877 28.9355 21.7047 29.8603ZM31.8516 17.138C30.5293 11.5945 25.7523 7.82916 19.9924 7.74798C19.2322 7.77203 18.4131 7.83444 17.6653 7.98843C9.59385 9.59826 5.43522 18.5175 9.3394 25.7056C9.47992 25.8973 9.47991 26.0842 9.44938 26.3006C8.88441 28.1563 8.36175 30.0743 7.85936 31.9493C7.77256 32.2846 7.77256 32.2846 8.08685 32.1899C10.0591 31.6625 12.0089 31.1538 13.9757 30.6695C14.1457 30.6152 14.2709 30.6152 14.4114 30.6993C16.9409 31.9841 19.6051 32.3281 22.4004 31.8165C29.0711 30.5317 33.448 23.7388 31.8516 17.138Z" fill="url(#paint0_linear)"/>
<defs>
<linearGradient id="paint0_linear" x1="19.5514" y1="-15.3353" x2="19.5514" y2="46.0058" gradientUnits="userSpaceOnUse">
<stop stop-color="#4CB752"/>
<stop offset="0.129412" stop-color="#4CB752"/>
<stop offset="0.788235" stop-color="#269B51"/>
<stop offset="1" stop-color="#269B51"/>
</linearGradient>
</defs>
</svg>
